<svg width="85" height="86" viewBox="0 0 85 86" fill="none" xmlns="http://www.w3.org/2000/svg">
<g clip-path="url(#clip0_2561_3142)">
<path fill-rule="evenodd" clip-rule="evenodd" d="M30.2452 26.7221L71.4557 53.063L26.7207 0L30.2452 26.7221Z" fill="url(#paint0_linear_2561_3142)"/>
<path fill-rule="evenodd" clip-rule="evenodd" d="M35.6477 56.7319L71.4557 53.063L0 7.39056L35.6477 56.7319Z" fill="url(#paint1_linear_2561_3142)"/>
<path fill-rule="evenodd" clip-rule="evenodd" d="M35.6478 56.7319L5.13522 86L71.4557 53.063L35.6478 56.7319Z" fill="url(#paint2_linear_2561_3142)"/>
<path fill-rule="evenodd" clip-rule="evenodd" d="M65.5549 28.2993L52.4538 40.9175L71.4557 53.063L65.5549 28.2993Z" fill="url(#paint3_linear_2561_3142)"/>
<path fill-rule="evenodd" clip-rule="evenodd" d="M71.4557 53.063L84.7312 53.0627L65.5549 28.2993L71.4557 53.063Z" fill="url(#paint4_linear_2561_3142)"/>
<path d="M52.4371 40.2544L57.2898 36.2601L52.8882 40.4996L63.7116 48.1128L39.4933 32.6335L52.4371 40.2544Z" fill="white"/>
</g>
<defs>
<linearGradient id="paint0_linear_2561_3142" x1="50.6905" y1="49.8593" x2="36.3846" y2="4.19576" gradientUnits="userSpaceOnUse">
<stop stop-color="#1A88D2"/>
<stop offset="1" stop-color="#56B4F4"/>
</linearGradient>
<linearGradient id="paint1_linear_2561_3142" x1="57.178" y1="59.3134" x2="18.6125" y2="16.7436" gradientUnits="userSpaceOnUse">
<stop stop-color="#1D9BF0"/>
<stop offset="1" stop-color="#56B4F4"/>
</linearGradient>
<linearGradient id="paint2_linear_2561_3142" x1="19.9185" y1="70.3965" x2="63.8119" y2="54.9101" gradientUnits="userSpaceOnUse">
<stop stop-color="#3AA8F2"/>
<stop offset="1" stop-color="#1A88D2"/>
</linearGradient>
<linearGradient id="paint3_linear_2561_3142" x1="60.7186" y1="58.5648" x2="62.5021" y2="40.7363" gradientUnits="userSpaceOnUse">
<stop stop-color="#1675B4"/>
<stop offset="1" stop-color="#1D9BF0"/>
</linearGradient>
<linearGradient id="paint4_linear_2561_3142" x1="78.3563" y1="53.3255" x2="69.0535" y2="31.9751" gradientUnits="userSpaceOnUse">
<stop stop-color="#3AA8F2"/>
<stop offset="1" stop-color="#1D9BF0"/>
</linearGradient>
<clipPath id="clip0_2561_3142">
<rect width="85" height="86" fill="white"/>
</clipPath>
</defs>
</svg>
